# MagicaVoxel @ Ephtracy

# group
o 

# material
mtllib Islands-84.mtl
usemtl palette

# normals
vn -1 0 0
vn 1 0 0
vn 0 0 1
vn 0 0 -1
vn 0 -1 0
vn 0 1 0

# texcoords
vt 0.908203 0.5
vt 0.912109 0.5
vt 0.927734 0.5
vt 0.943359 0.5

# verts
v -0.2 -0.2 0.2
v -0.2 -0.2 -0.2
v -0.2 -0.1 0.2
v -0.2 -0.1 -0.2
v -0.2 0 0.2
v -0.2 0 0.1
v -0.2 0 0
v -0.2 0 -0.2
v -0.2 0.1 0.2
v -0.2 0.1 0.1
v -0.2 0.1 0
v -0.2 0.1 -0.2
v -0.2 0.2 0.2
v -0.2 0.2 -0.2
v 0.2 -0.2 0.2
v 0.2 -0.2 -0.2
v 0.2 -0.1 0.2
v 0.2 -0.1 -0.2
v 0.2 0 0.2
v 0.2 0 0.1
v 0.2 0 -0.2
v 0.2 0.1 0.1
v 0.2 0.1 -0.2
v 0.2 0.2 0.2
v 0.2 0.2 -0.2
v -0.2 -0.2 0.2
v -0.2 -0.1 0.2
v -0.2 0 0.2
v -0.2 0.1 0.2
v -0.2 0.2 0.2
v 0.1 0 0.2
v 0.1 0.1 0.2
v 0.2 -0.2 0.2
v 0.2 -0.1 0.2
v 0.2 0 0.2
v 0.2 0.2 0.2
v -0.2 -0.2 -0.2
v -0.2 -0.1 -0.2
v -0.2 0 -0.2
v -0.2 0.1 -0.2
v -0.2 0.2 -0.2
v -0.1 0 -0.2
v -0.1 0.1 -0.2
v 0.1 0 -0.2
v 0.1 0.1 -0.2
v 0.2 -0.2 -0.2
v 0.2 -0.1 -0.2
v 0.2 0 -0.2
v 0.2 0.1 -0.2
v 0.2 0.2 -0.2
v -0.2 -0.2 0.2
v 0.2 -0.2 0.2
v -0.2 -0.2 -0.2
v 0.2 -0.2 -0.2
v -0.2 0.2 0.2
v 0.2 0.2 0.2
v -0.2 0.2 -0.2
v 0.2 0.2 -0.2

# faces
f 3/3/1 2/3/1 1/3/1
f 4/3/1 2/3/1 3/3/1
f 5/2/1 4/2/1 3/2/1
f 6/2/1 4/2/1 5/2/1
f 7/2/1 4/2/1 6/2/1
f 8/2/1 4/2/1 7/2/1
f 9/1/1 6/1/1 5/1/1
f 10/4/1 7/4/1 6/4/1
f 10/1/1 6/1/1 9/1/1
f 11/1/1 8/1/1 7/1/1
f 11/4/1 7/4/1 10/4/1
f 12/1/1 8/1/1 11/1/1
f 13/4/1 10/4/1 9/4/1
f 13/4/1 11/4/1 10/4/1
f 13/4/1 12/4/1 11/4/1
f 14/4/1 12/4/1 13/4/1
f 15/3/2 16/3/2 17/3/2
f 17/3/2 16/3/2 18/3/2
f 17/2/2 18/2/2 19/2/2
f 19/2/2 18/2/2 20/2/2
f 20/2/2 18/2/2 21/2/2
f 19/4/2 20/4/2 22/4/2
f 20/1/2 21/1/2 22/1/2
f 22/1/2 21/1/2 23/1/2
f 19/4/2 22/4/2 24/4/2
f 22/4/2 23/4/2 24/4/2
f 24/4/2 23/4/2 25/4/2
f 31/2/3 28/2/3 27/2/3
f 31/1/3 29/1/3 28/1/3
f 32/4/3 30/4/3 29/4/3
f 32/1/3 29/1/3 31/1/3
f 33/3/3 27/3/3 26/3/3
f 34/2/3 31/2/3 27/2/3
f 34/3/3 27/3/3 33/3/3
f 35/4/3 32/4/3 31/4/3
f 35/2/3 31/2/3 34/2/3
f 36/4/3 30/4/3 32/4/3
f 36/4/3 32/4/3 35/4/3
f 38/2/4 39/2/4 42/2/4
f 39/1/4 40/1/4 42/1/4
f 40/4/4 41/4/4 43/4/4
f 42/1/4 40/1/4 43/1/4
f 38/2/4 42/2/4 44/2/4
f 42/4/4 43/4/4 44/4/4
f 43/4/4 41/4/4 45/4/4
f 44/4/4 43/4/4 45/4/4
f 37/3/4 38/3/4 46/3/4
f 38/2/4 44/2/4 47/2/4
f 46/3/4 38/3/4 47/3/4
f 44/1/4 45/1/4 48/1/4
f 47/2/4 44/2/4 48/2/4
f 45/4/4 41/4/4 49/4/4
f 48/1/4 45/1/4 49/1/4
f 49/4/4 41/4/4 50/4/4
f 53/3/5 52/3/5 51/3/5
f 54/3/5 52/3/5 53/3/5
f 55/4/6 56/4/6 57/4/6
f 57/4/6 56/4/6 58/4/6
